<svg width="35" height="19" viewBox="0 0 35 19" fill="none" xmlns="http://www.w3.org/2000/svg">
<path d="M33.7778 4.22223H31.6667C31.0837 4.22223 30.6111 4.69482 30.6111 5.27778V13.7222C30.6111 14.3052 31.0837 14.7778 31.6667 14.7778H33.7778C34.3607 14.7778 34.8333 14.3052 34.8333 13.7222V5.27778C34.8333 4.69482 34.3607 4.22223 33.7778 4.22223Z" fill="#245822"/>
<path d="M5.27778 4.22223H10.5556V14.7778H5.27778V4.22223ZM12.1389 4.22223H17.4167V14.7778H12.1389V4.22223ZM19 4.22223H24.2778V14.7778H19V4.22223Z" fill="#245822"/>
<path fill-rule="evenodd" clip-rule="evenodd" d="M26.3889 0H3.16667C2.32681 0 1.52136 0.33363 0.927495 0.927495C0.33363 1.52136 0 2.32681 0 3.16667V15.8333C0 16.6732 0.33363 17.4786 0.927495 18.0725C1.52136 18.6664 2.32681 19 3.16667 19H26.3889C27.2287 19 28.0342 18.6664 28.6281 18.0725C29.2219 17.4786 29.5556 16.6732 29.5556 15.8333V3.16667C29.5556 2.32681 29.2219 1.52136 28.6281 0.927495C28.0342 0.33363 27.2287 0 26.3889 0ZM2.11111 3.16667C2.11111 2.88672 2.22232 2.61823 2.42028 2.42028C2.61823 2.22232 2.88672 2.11111 3.16667 2.11111H26.3889C26.6688 2.11111 26.9373 2.22232 27.1353 2.42028C27.3332 2.61823 27.4444 2.88672 27.4444 3.16667V15.8333C27.4444 16.1133 27.3332 16.3818 27.1353 16.5797C26.9373 16.7777 26.6688 16.8889 26.3889 16.8889H3.16667C2.88672 16.8889 2.61823 16.7777 2.42028 16.5797C2.22232 16.3818 2.11111 16.1133 2.11111 15.8333V3.16667Z" fill="#245822"/>
</svg>
