<svg width="79" height="72" viewBox="0 0 79 72" fill="none" xmlns="http://www.w3.org/2000/svg">
<path d="M14.7549 31.2187C25.5513 12.0717 30.9494 2.5 39.4999 2.5C48.0504 2.5 53.4486 12.0717 64.2449 31.2187L65.5917 33.6015C74.564 49.5111 79.052 57.4659 74.9969 63.2821C70.9418 69.0984 60.9076 69.0984 40.8467 69.0984H38.1532C18.0923 69.0984 8.05809 69.0984 4.00299 63.2821C-0.05211 57.4659 4.43588 49.5111 13.4082 33.6015L14.7549 31.2187Z" stroke="#EA3D3D" stroke-width="5"/>
<path d="M39.5 20.9995V39.4991" stroke="#EA3D3D" stroke-width="5" stroke-linecap="round"/>
<path d="M39.5002 49.3989C40.1627 49.3991 40.6994 49.9365 40.6994 50.5991C40.6992 51.2616 40.1626 51.7982 39.5002 51.7983C38.8376 51.7983 38.3001 51.2617 38.3 50.5991C38.3 49.9364 38.8375 49.3989 39.5002 49.3989Z" stroke="#EA3D3D" stroke-width="5"/>
</svg>
