<svg width="31" height="37" viewBox="0 0 31 37" fill="none" xmlns="http://www.w3.org/2000/svg">
<path d="M7.44533 14.9737C6.06289 13.2737 4.76467 12.9087 3.5507 13.8789C1.72978 15.334 1.20682 20.406 2.67217 24.8781C4.13756 29.3503 6.98689 35.4404 12.7391 35.4404C18.4912 35.4404 19.8519 29.3131 22.1985 25.6085C24.5452 21.9039 25.7867 18.3298 23.4866 13.8789" stroke="#EA3D3D" stroke-width="2" stroke-linecap="round" stroke-linejoin="round"/>
<path d="M4.54552 13.3503C3.15045 11.2251 2.05815 9.5767 1.26861 8.40489C0.084289 6.6472 3.11276 4.3755 4.54552 5.92091C5.50065 6.95118 6.76955 8.46862 8.35212 10.4733" stroke="#EA3D3D" stroke-width="2" stroke-linecap="round"/>
<path d="M7.84174 19.5786C7.44483 14.6111 7.76777 11.3765 8.81055 9.87499C10.3747 7.62279 13.281 6.76883 16.0175 6.76883C17.6468 6.76883 19.1348 7.46279 20.4814 8.85072" stroke="#EA3D3D" stroke-width="2" stroke-linecap="round" stroke-linejoin="round"/>
<path d="M29.1224 8.9067C29.6021 10.575 28.8186 12.0991 26.406 12.4443C23.9933 12.7895 22.1844 14.0027 20.8798 15.0233C19.5752 16.0438 17.2421 19.1403 16.7815 20.6949C16.3208 22.2495 13.6882 20.8197 12.9811 20.1991C12.2741 19.5784 11.5789 18.2195 12.9811 16.7982C14.3832 15.3769 14.0799 15.0933 14.0799 13.652C14.0799 12.2107 21.7494 7.44316 26.0688 7.00717C27.029 6.95114 28.6427 7.23844 29.1224 8.9067Z" stroke="#EA3D3D" stroke-width="2"/>
<path d="M14.3826 1.85104V6.16236" stroke="#EA3D3D" stroke-width="2" stroke-linecap="round"/>
<path d="M12.1697 7.35429C9.69744 4.24743 7.70402 2.51342 6.18953 2.15225" stroke="#EA3D3D" stroke-width="2" stroke-linecap="round"/>
<path d="M9.46404 4.33232L10.2755 1.00024" stroke="#EA3D3D" stroke-width="2" stroke-linecap="round"/>
<path d="M24.7089 7.35403C24.4449 8.25886 24.4449 9.10725 24.7089 9.89911C24.9728 10.6911 25.5385 11.5394 26.4058 12.4443" stroke="#EA3D3D" stroke-width="2" stroke-linecap="round"/>
</svg>
