<svg width="26" height="26" viewBox="0 0 26 26" fill="none" xmlns="http://www.w3.org/2000/svg">
<path d="M13.0017 2.16488C15.2127 2.16526 17.3706 2.84216 19.1857 4.10466C21.0008 5.36716 22.3862 7.15482 23.1557 9.22757C23.9253 11.3003 24.0422 13.5589 23.4908 15.7001C22.9394 17.8412 21.746 19.7623 20.071 21.2055C18.3959 22.6487 16.3194 23.5448 14.1203 23.7734C11.9211 24.0021 9.70466 23.5524 7.76853 22.4848C5.8324 21.4171 4.2693 19.7826 3.28915 17.8007C2.309 15.8188 1.95872 13.5845 2.28536 11.3978C2.38214 10.742 1.90258 10.1093 1.23958 10.1093C0.980902 10.1049 0.72918 10.1932 0.529949 10.3583C0.330719 10.5233 0.197136 10.7542 0.153364 11.0092C-0.315584 14.0354 0.298798 17.1299 1.88821 19.7474C3.47763 22.3649 5.94004 24.3373 8.84139 25.3169C11.7428 26.2965 14.8968 26.2204 17.7475 25.1021C20.5983 23.9838 22.9628 21.895 24.4242 19.2039C25.8855 16.5128 26.35 13.3922 25.7357 10.3922C25.1214 7.39219 23.4678 4.70532 21.0663 2.80521C18.6649 0.905101 15.6697 -0.086253 12.6088 0.00589061C9.54795 0.0980342 6.61785 1.26776 4.33502 3.30888V1.80377C4.33502 1.51645 4.22089 1.2409 4.01772 1.03774C3.81456 0.834575 3.53901 0.720438 3.25169 0.720438C2.96437 0.720438 2.68882 0.834575 2.48566 1.03774C2.2825 1.2409 2.16836 1.51645 2.16836 1.80377V6.1371C2.16836 6.7351 2.65369 7.22044 3.25169 7.22044H7.58502C7.87233 7.22044 8.14788 7.1063 8.35105 6.90314C8.55421 6.69997 8.66835 6.42442 8.66835 6.1371C8.66835 5.84979 8.55421 5.57424 8.35105 5.37107C8.14788 5.16791 7.87233 5.05377 7.58502 5.05377H5.63502C7.63613 3.19267 10.2689 2.16022 13.0017 2.16488ZM13.7239 6.85933C13.7239 6.57201 13.6098 6.29646 13.4066 6.09329C13.2034 5.89013 12.9279 5.77599 12.6406 5.77599C12.3532 5.77599 12.0777 5.89013 11.8745 6.09329C11.6714 6.29646 11.5572 6.57201 11.5572 6.85933V13.3593C11.5572 13.9573 12.0426 14.4427 12.6406 14.4427H16.9739C17.2612 14.4427 17.5368 14.3285 17.7399 14.1254C17.9431 13.9222 18.0572 13.6466 18.0572 13.3593C18.0572 13.072 17.9431 12.7965 17.7399 12.5933C17.5368 12.3901 17.2612 12.276 16.9739 12.276H13.7239V6.85933Z" fill="currentColor"/>
</svg>
