<svg width="27" height="30" viewBox="0 0 27 30" fill="none" xmlns="http://www.w3.org/2000/svg">
<path d="M4.08281 28.8754C2.24219 28.8754 0.75 27.3442 0.75 25.4536V11.7004C0.75 10.6614 1.21094 9.67699 2 9.02856L11.1672 1.50043C11.7529 1.0154 12.4895 0.75 13.25 0.75C14.0105 0.75 14.7471 1.0154 15.3328 1.50043L24.4984 9.02856C25.2891 9.67699 25.75 10.6614 25.75 11.7004V25.4536C25.75 27.3442 24.2578 28.8754 22.4172 28.8754H4.08281Z" stroke="currentColor" stroke-width="1.5" stroke-linecap="round" stroke-linejoin="round"/>
<path d="M9.34375 28.8754V20.2816C9.34375 19.4528 9.67299 18.658 10.259 18.0719C10.8451 17.4859 11.6399 17.1566 12.4688 17.1566H14.0312C14.8601 17.1566 15.6549 17.4859 16.241 18.0719C16.827 18.658 17.1562 19.4528 17.1562 20.2816V28.8754" stroke="currentColor" stroke-width="1.5" stroke-linecap="round" stroke-linejoin="round"/>
</svg>
