<svg width="24" height="24" viewBox="0 0 24 24" fill="none" xmlns="http://www.w3.org/2000/svg">
<path d="M12.5714 17.1429H11.4286C11.1255 17.1429 10.8348 17.2633 10.6204 17.4776C10.4061 17.6919 10.2857 17.9826 10.2857 18.2857C10.2857 18.5888 10.4061 18.8795 10.6204 19.0938C10.8348 19.3082 11.1255 19.4286 11.4286 19.4286H12.5714C12.8745 19.4286 13.1652 19.3082 13.3795 19.0938C13.5939 18.8795 13.7143 18.5888 13.7143 18.2857C13.7143 17.9826 13.5939 17.6919 13.3795 17.4776C13.1652 17.2633 12.8745 17.1429 12.5714 17.1429ZM12.5714 12.5714H11.4286C11.1255 12.5714 10.8348 12.6918 10.6204 12.9062C10.4061 13.1205 10.2857 13.4112 10.2857 13.7143C10.2857 14.0174 10.4061 14.3081 10.6204 14.5224C10.8348 14.7367 11.1255 14.8571 11.4286 14.8571H12.5714C12.8745 14.8571 13.1652 14.7367 13.3795 14.5224C13.5939 14.3081 13.7143 14.0174 13.7143 13.7143C13.7143 13.4112 13.5939 13.1205 13.3795 12.9062C13.1652 12.6918 12.8745 12.5714 12.5714 12.5714ZM6.85714 17.1429H5.71429C5.41118 17.1429 5.12049 17.2633 4.90616 17.4776C4.69184 17.6919 4.57143 17.9826 4.57143 18.2857C4.57143 18.5888 4.69184 18.8795 4.90616 19.0938C5.12049 19.3082 5.41118 19.4286 5.71429 19.4286H6.85714C7.16025 19.4286 7.45094 19.3082 7.66526 19.0938C7.87959 18.8795 8 18.5888 8 18.2857C8 17.9826 7.87959 17.6919 7.66526 17.4776C7.45094 17.2633 7.16025 17.1429 6.85714 17.1429ZM6.85714 12.5714H5.71429C5.41118 12.5714 5.12049 12.6918 4.90616 12.9062C4.69184 13.1205 4.57143 13.4112 4.57143 13.7143C4.57143 14.0174 4.69184 14.3081 4.90616 14.5224C5.12049 14.7367 5.41118 14.8571 5.71429 14.8571H6.85714C7.16025 14.8571 7.45094 14.7367 7.66526 14.5224C7.87959 14.3081 8 14.0174 8 13.7143C8 13.4112 7.87959 13.1205 7.66526 12.9062C7.45094 12.6918 7.16025 12.5714 6.85714 12.5714ZM22.8571 5.71429H19.4286V1.14286C19.4286 0.839753 19.3082 0.549062 19.0938 0.334735C18.8795 0.120408 18.5888 0 18.2857 0H5.71429C5.41118 0 5.12049 0.120408 4.90616 0.334735C4.69184 0.549062 4.57143 0.839753 4.57143 1.14286V5.71429H1.14286C0.839753 5.71429 0.549062 5.83469 0.334735 6.04902C0.120408 6.26335 0 6.55404 0 6.85714V22.8571C0 23.1602 0.120408 23.4509 0.334735 23.6653C0.549062 23.8796 0.839753 24 1.14286 24H22.8571C23.1602 24 23.4509 23.8796 23.6653 23.6653C23.8796 23.4509 24 23.1602 24 22.8571V6.85714C24 6.55404 23.8796 6.26335 23.6653 6.04902C23.4509 5.83469 23.1602 5.71429 22.8571 5.71429ZM21.7143 21.7143H2.28571V8H5.71429C6.01739 8 6.30808 7.87959 6.52241 7.66526C6.73673 7.45094 6.85714 7.16025 6.85714 6.85714V2.28571H17.1429V6.85714C17.1429 7.16025 17.2633 7.45094 17.4776 7.66526C17.6919 7.87959 17.9826 8 18.2857 8H21.7143V21.7143ZM17.1429 12.5714C16.8398 12.5714 16.5491 12.6918 16.3347 12.9062C16.1204 13.1205 16 13.4112 16 13.7143C16 14.0174 16.1204 14.3081 16.3347 14.5224C16.5491 14.7367 16.8398 14.8571 17.1429 14.8571H18.2857C18.5888 14.8571 18.8795 14.7367 19.0938 14.5224C19.3082 14.3081 19.4286 14.0174 19.4286 13.7143C19.4286 13.4112 19.3082 13.1205 19.0938 12.9062C18.8795 12.6918 18.5888 12.5714 18.2857 12.5714H17.1429ZM13.7143 6.28571H13.1429V5.71429C13.1429 5.41118 13.0224 5.12049 12.8081 4.90616C12.5938 4.69184 12.3031 4.57143 12 4.57143C11.6969 4.57143 11.4062 4.69184 11.1919 4.90616C10.9776 5.12049 10.8571 5.41118 10.8571 5.71429V6.28571H10.2857C9.98261 6.28571 9.69192 6.40612 9.47759 6.62045C9.26326 6.83478 9.14286 7.12547 9.14286 7.42857C9.14286 7.73168 9.26326 8.02237 9.47759 8.23669C9.69192 8.45102 9.98261 8.57143 10.2857 8.57143H10.8571V9.14286C10.8571 9.44596 10.9776 9.73665 11.1919 9.95098C11.4062 10.1653 11.6969 10.2857 12 10.2857C12.3031 10.2857 12.5938 10.1653 12.8081 9.95098C13.0224 9.73665 13.1429 9.44596 13.1429 9.14286V8.57143H13.7143C14.0174 8.57143 14.3081 8.45102 14.5224 8.23669C14.7367 8.02237 14.8571 7.73168 14.8571 7.42857C14.8571 7.12547 14.7367 6.83478 14.5224 6.62045C14.3081 6.40612 14.0174 6.28571 13.7143 6.28571ZM18.2857 17.1429H17.1429C16.8398 17.1429 16.5491 17.2633 16.3347 17.4776C16.1204 17.6919 16 17.9826 16 18.2857C16 18.5888 16.1204 18.8795 16.3347 19.0938C16.5491 19.3082 16.8398 19.4286 17.1429 19.4286H18.2857C18.5888 19.4286 18.8795 19.3082 19.0938 19.0938C19.3082 18.8795 19.4286 18.5888 19.4286 18.2857C19.4286 17.9826 19.3082 17.6919 19.0938 17.4776C18.8795 17.2633 18.5888 17.1429 18.2857 17.1429Z" fill="#EA3D3D"/>
</svg>
