<svg width="18" height="20" viewBox="0 0 18 20" fill="none" xmlns="http://www.w3.org/2000/svg">
<path d="M8.99949 16.7395L1.58822 19.9034C1.33926 19.9992 1.10486 20.0234 0.885012 19.9758C0.665164 19.9283 0.478254 19.8274 0.324283 19.6733C0.170313 19.5191 0.0699641 19.3274 0.0232368 19.098C-0.0234906 18.8687 0.000255862 18.629 0.0944766 18.379L7.93663 0.69029C8.03239 0.460193 8.18099 0.287621 8.38246 0.172572C8.58392 0.057524 8.7896 0 8.99949 0C9.20938 0 9.41506 0.057524 9.61652 0.172572C9.81798 0.287621 9.96659 0.460193 10.0623 0.69029L17.9045 18.379C18.0003 18.6282 18.024 18.8679 17.9757 19.098C17.9275 19.3281 17.8271 19.5199 17.6747 19.6733C17.5223 19.8267 17.3353 19.9275 17.114 19.9758C16.8926 20.0242 16.6582 20 16.4108 19.9034L8.99949 16.7395ZM3.36922 16.6245L8.99949 14.2085L14.6298 16.6245L8.99949 3.96917L3.36922 16.6245Z" fill="#2C68FF"/>
</svg>
