<svg width="17" height="24" viewBox="0 0 17 24" fill="none" xmlns="http://www.w3.org/2000/svg">
<path d="M16.7522 21.2834L14.9269 17.5752C14.534 16.7829 14.0262 16.2063 13.1495 16.5579L11.42 17.1861C10.0354 17.8143 9.34556 17.1861 8.65089 16.2391L5.53686 9.30556C5.14401 8.51328 5.35002 7.76789 6.22674 7.41629L8.6461 6.46932C9.52282 6.11303 9.38389 5.37232 8.99104 4.58005L6.91662 0.801522C6.52377 0.00924925 5.71891 -0.182959 4.84219 0.168641C3.08875 0.87653 1.63713 1.98759 0.693335 3.63307C-0.456463 5.64423 0.118436 8.44296 0.348395 9.61965C0.578355 10.7963 1.38321 12.8591 2.42282 14.9734C3.46243 17.0923 4.37269 18.7566 5.19192 19.6989C6.00636 20.6411 7.96102 23.2195 10.3804 23.7962C12.3638 24.265 14.5053 23.8712 16.2587 23.1633C17.1402 22.8258 17.1402 22.0804 16.7522 21.2834Z" fill="#245822"/>
</svg>
