<svg width="28" height="28" viewBox="0 0 28 28" fill="none" xmlns="http://www.w3.org/2000/svg">
<path fill-rule="evenodd" clip-rule="evenodd" d="M14.7882 1.68H13.2118L12.3088 5.2892L11.403 5.5692C10.8752 5.73184 10.3638 5.94371 9.8756 6.202L9.037 6.6458L5.845 4.7306L4.7306 5.8464L6.6458 9.0384L6.202 9.8756C5.94323 10.3637 5.73089 10.8751 5.5678 11.403L5.2892 12.3088L1.68 13.2118V14.7882L5.2892 15.6912L5.5692 16.597C5.73067 17.1271 5.9416 17.6363 6.202 18.1244L6.6458 18.963L4.7306 22.155L5.8464 23.2694L9.0384 21.3542L9.8756 21.798C10.3637 22.0575 10.8729 22.2689 11.403 22.4322L12.3088 22.7108L13.2118 26.32H14.7882L15.6912 22.7108L16.597 22.4308C17.1248 22.2682 17.6362 22.0563 18.1244 21.798L18.963 21.3542L22.155 23.2694L23.2694 22.1536L21.3542 18.9616L21.798 18.1244C22.0575 17.6363 22.2689 17.1271 22.4322 16.597L22.7108 15.6912L26.32 14.7882V13.2118L22.7108 12.3088L22.4308 11.403C22.2682 10.8752 22.0563 10.3638 21.798 9.8756L21.3542 9.037L23.2694 5.845L22.1536 4.7306L18.9616 6.6458L18.1244 6.202C17.6363 5.94323 17.1249 5.73089 16.597 5.5678L15.6912 5.2892L14.7882 1.68ZM18.9112 4.718L21.4774 3.178C21.745 3.01751 22.0585 2.951 22.3682 2.98905C22.6779 3.0271 22.966 3.16751 23.1868 3.388L24.612 4.8132C24.8325 5.03398 24.9729 5.32209 25.0109 5.63179C25.049 5.94148 24.9825 6.25502 24.822 6.5226L23.282 9.0888C23.59 9.66747 23.842 10.2741 24.038 10.9088L26.9402 11.6354C27.2429 11.7112 27.5117 11.8861 27.7037 12.1321C27.8957 12.3782 28 12.6813 28 12.9934V15.0066C28 15.3187 27.8957 15.6218 27.7037 15.8679C27.5117 16.1139 27.2429 16.2888 26.9402 16.3646L24.038 17.0912C23.842 17.7259 23.59 18.3325 23.282 18.9112L24.822 21.4774C24.9825 21.745 25.049 22.0585 25.0109 22.3682C24.9729 22.6779 24.8325 22.966 24.612 23.1868L23.1868 24.612C22.966 24.8325 22.6779 24.9729 22.3682 25.0109C22.0585 25.049 21.745 24.9825 21.4774 24.822L18.9112 23.282C18.3325 23.59 17.7259 23.842 17.0912 24.038L16.3646 26.9402C16.2888 27.2429 16.1139 27.5117 15.8679 27.7037C15.6218 27.8957 15.3187 28 15.0066 28H12.9934C12.6813 28 12.3782 27.8957 12.1321 27.7037C11.8861 27.5117 11.7112 27.2429 11.6354 26.9402L10.9088 24.038C10.2798 23.8436 9.67042 23.5905 9.0888 23.282L6.5226 24.822C6.25502 24.9825 5.94148 25.049 5.63179 25.0109C5.32209 24.9729 5.03398 24.8325 4.8132 24.612L3.388 23.1868C3.16751 22.966 3.0271 22.6779 2.98905 22.3682C2.951 22.0585 3.01751 21.745 3.178 21.4774L4.718 18.9112C4.4095 18.3296 4.15638 17.7202 3.962 17.0912L1.0598 16.3646C0.757287 16.2888 0.488738 16.1142 0.296748 15.8684C0.104758 15.6227 0.0003201 15.3199 0 15.008V12.9948C8.20461e-06 12.6827 0.104303 12.3796 0.296318 12.1335C0.488332 11.8875 0.757055 11.7126 1.0598 11.6368L3.962 10.9102C4.158 10.2755 4.41 9.66887 4.718 9.0902L3.178 6.524C3.01751 6.25642 2.951 5.94288 2.98905 5.63319C3.0271 5.32349 3.16751 5.03538 3.388 4.8146L4.8132 3.388C5.03398 3.16751 5.32209 3.0271 5.63179 2.98905C5.94148 2.951 6.25502 3.01751 6.5226 3.178L9.0888 4.718C9.66747 4.41 10.2741 4.158 10.9088 3.962L11.6354 1.0598C11.7112 0.757287 11.8858 0.488738 12.1316 0.296748C12.3773 0.104758 12.6801 0.0003201 12.992 0H15.0052C15.3173 8.20461e-06 15.6204 0.104303 15.8665 0.296318C16.1125 0.488332 16.2874 0.757055 16.3632 1.0598L17.0898 3.962C17.7245 4.158 18.3311 4.41 18.9098 4.718H18.9112ZM14 17.92C15.0396 17.92 16.0367 17.507 16.7719 16.7719C17.507 16.0367 17.92 15.0396 17.92 14C17.92 12.9604 17.507 11.9633 16.7719 11.2281C16.0367 10.493 15.0396 10.08 14 10.08C12.9604 10.08 11.9633 10.493 11.2281 11.2281C10.493 11.9633 10.08 12.9604 10.08 14C10.08 15.0396 10.493 16.0367 11.2281 16.7719C11.9633 17.507 12.9604 17.92 14 17.92ZM14 19.6C12.5148 19.6 11.0904 19.01 10.0402 17.9598C8.99 16.9096 8.4 15.4852 8.4 14C8.4 12.5148 8.99 11.0904 10.0402 10.0402C11.0904 8.99 12.5148 8.4 14 8.4C15.4852 8.4 16.9096 8.99 17.9598 10.0402C19.01 11.0904 19.6 12.5148 19.6 14C19.6 15.4852 19.01 16.9096 17.9598 17.9598C16.9096 19.01 15.4852 19.6 14 19.6Z" fill="currentColor" fill-opacity="0.6"/>
</svg>
