<svg width="16" height="16" viewBox="0 0 16 16" fill="none" xmlns="http://www.w3.org/2000/svg">
<path fill-rule="evenodd" clip-rule="evenodd" d="M8 0C8.14803 0 8.28999 0.0588038 8.39466 0.163475C8.49934 0.268147 8.55814 0.410112 8.55814 0.55814V1.30233C8.55814 1.45035 8.49934 1.59232 8.39466 1.69699C8.28999 1.80166 8.14803 1.86047 8 1.86047C7.85197 1.86047 7.71001 1.80166 7.60534 1.69699C7.50066 1.59232 7.44186 1.45035 7.44186 1.30233V0.55814C7.44186 0.410112 7.50066 0.268147 7.60534 0.163475C7.71001 0.0588038 7.85197 0 8 0ZM2.34344 2.34344C2.44809 2.23892 2.58995 2.18021 2.73786 2.18021C2.88577 2.18021 3.02763 2.23892 3.13228 2.34344L3.42474 2.63516C3.52646 2.74038 3.58279 2.88134 3.58159 3.02769C3.58038 3.17403 3.52175 3.31405 3.41832 3.41758C3.31488 3.52111 3.17492 3.57988 3.02858 3.58122C2.88224 3.58256 2.74122 3.52637 2.63591 3.42474L2.34344 3.13228C2.23892 3.02763 2.18021 2.88577 2.18021 2.73786C2.18021 2.58995 2.23892 2.44809 2.34344 2.34344ZM13.6566 2.34344C13.7611 2.44809 13.8198 2.58995 13.8198 2.73786C13.8198 2.88577 13.7611 3.02763 13.6566 3.13228L13.3641 3.42474C13.2583 3.52333 13.1183 3.57701 12.9738 3.57446C12.8292 3.5719 12.6912 3.51333 12.5889 3.41107C12.4867 3.30881 12.4281 3.17085 12.4255 3.02625C12.423 2.88165 12.4767 2.74171 12.5753 2.63591L12.8677 2.34344C12.9724 2.23892 13.1142 2.18021 13.2621 2.18021C13.41 2.18021 13.5519 2.23892 13.6566 2.34344ZM8 4.09302C6.96381 4.09302 5.97005 4.50465 5.23735 5.23735C4.50465 5.97005 4.09302 6.96381 4.09302 8C4.09302 9.03619 4.50465 10.0299 5.23735 10.7626C5.97005 11.4953 6.96381 11.907 8 11.907C9.03619 11.907 10.0299 11.4953 10.7626 10.7626C11.4953 10.0299 11.907 9.03619 11.907 8C11.907 6.96381 11.4953 5.97005 10.7626 5.23735C10.0299 4.50465 9.03619 4.09302 8 4.09302ZM2.97674 8C2.97674 6.66775 3.50598 5.39007 4.44802 4.44802C5.39007 3.50598 6.66775 2.97674 8 2.97674C9.33225 2.97674 10.6099 3.50598 11.552 4.44802C12.494 5.39007 13.0233 6.66775 13.0233 8C13.0233 9.33225 12.494 10.6099 11.552 11.552C10.6099 12.494 9.33225 13.0233 8 13.0233C6.66775 13.0233 5.39007 12.494 4.44802 11.552C3.50598 10.6099 2.97674 9.33225 2.97674 8ZM0 8C0 7.85197 0.0588038 7.71001 0.163475 7.60534C0.268147 7.50066 0.410112 7.44186 0.55814 7.44186H1.30233C1.45035 7.44186 1.59232 7.50066 1.69699 7.60534C1.80166 7.71001 1.86047 7.85197 1.86047 8C1.86047 8.14803 1.80166 8.28999 1.69699 8.39466C1.59232 8.49934 1.45035 8.55814 1.30233 8.55814H0.55814C0.410112 8.55814 0.268147 8.49934 0.163475 8.39466C0.0588038 8.28999 0 8.14803 0 8ZM14.1395 8C14.1395 7.85197 14.1983 7.71001 14.303 7.60534C14.4077 7.50066 14.5496 7.44186 14.6977 7.44186H15.4419C15.5899 7.44186 15.7319 7.50066 15.8365 7.60534C15.9412 7.71001 16 7.85197 16 8C16 8.14803 15.9412 8.28999 15.8365 8.39466C15.7319 8.49934 15.5899 8.55814 15.4419 8.55814H14.6977C14.5496 8.55814 14.4077 8.49934 14.303 8.39466C14.1983 8.28999 14.1395 8.14803 14.1395 8ZM12.5753 12.5753C12.6799 12.4707 12.8218 12.412 12.9697 12.412C13.1176 12.412 13.2594 12.4707 13.3641 12.5753L13.6566 12.8677C13.7114 12.9188 13.7554 12.9804 13.7859 13.0489C13.8164 13.1174 13.8328 13.1913 13.8341 13.2662C13.8354 13.3412 13.8217 13.4156 13.7936 13.4851C13.7655 13.5546 13.7237 13.6177 13.6707 13.6707C13.6177 13.7237 13.5546 13.7655 13.4851 13.7936C13.4156 13.8217 13.3412 13.8354 13.2662 13.8341C13.1913 13.8328 13.1174 13.8164 13.0489 13.7859C12.9804 13.7554 12.9188 13.7114 12.8677 13.6566L12.5753 13.3641C12.4707 13.2594 12.412 13.1176 12.412 12.9697C12.412 12.8218 12.4707 12.6799 12.5753 12.5753ZM3.42474 12.5753C3.52927 12.6799 3.58797 12.8218 3.58797 12.9697C3.58797 13.1176 3.52927 13.2594 3.42474 13.3641L3.13228 13.6566C3.08118 13.7114 3.01956 13.7554 2.9511 13.7859C2.88263 13.8164 2.80873 13.8328 2.73378 13.8341C2.65884 13.8354 2.5844 13.8217 2.5149 13.7936C2.44541 13.7655 2.38227 13.7237 2.32927 13.6707C2.27627 13.6177 2.23449 13.5546 2.20642 13.4851C2.17835 13.4156 2.16456 13.3412 2.16589 13.2662C2.16721 13.1913 2.18361 13.1174 2.21412 13.0489C2.24462 12.9804 2.28861 12.9188 2.34344 12.8677L2.63516 12.5753C2.687 12.5234 2.74854 12.4822 2.81628 12.4542C2.88402 12.4261 2.95663 12.4117 3.02995 12.4117C3.10328 12.4117 3.17589 12.4261 3.24363 12.4542C3.31137 12.4822 3.37291 12.5234 3.42474 12.5753ZM8 14.1395C8.14803 14.1395 8.28999 14.1983 8.39466 14.303C8.49934 14.4077 8.55814 14.5496 8.55814 14.6977V15.4419C8.55814 15.5899 8.49934 15.7319 8.39466 15.8365C8.28999 15.9412 8.14803 16 8 16C7.85197 16 7.71001 15.9412 7.60534 15.8365C7.50066 15.7319 7.44186 15.5899 7.44186 15.4419V14.6977C7.44186 14.5496 7.50066 14.4077 7.60534 14.303C7.71001 14.1983 7.85197 14.1395 8 14.1395Z" fill="currentColor"/>
</svg>
