<svg width="32" height="27" viewBox="0 0 32 27" fill="none" xmlns="http://www.w3.org/2000/svg">
<path d="M15.5795 0C9.45899 0 4.54597 2.12461 0.849358 5.02011C-0.058834 5.73197 -0.24212 6.9937 0.315975 7.96985L1.25163 9.60775C2.0088 10.9326 3.76271 11.2003 4.9702 10.345C7.81628 8.32749 11.4456 6.70126 15.5788 6.70126C19.712 6.70126 23.342 8.32818 26.1881 10.345C27.3949 11.2003 29.1488 10.9326 29.906 9.60775L30.8423 7.96985C31.3997 6.9937 31.2171 5.73197 30.309 5.02011C26.611 2.12529 21.7 0 15.5795 0ZM15.552 20.2987C14.6634 20.2989 13.8112 20.6521 13.183 21.2806C12.5548 21.9091 12.2019 22.7614 12.2021 23.6501C12.2023 24.5387 12.5555 25.3909 13.184 26.0191C13.8125 26.6473 14.6648 27.0002 15.5534 27C16.4421 26.9998 17.2942 26.6466 17.9225 26.0181C18.5507 25.3896 18.9035 24.5373 18.9034 23.6487C18.9032 22.76 18.55 21.9079 17.9215 21.2796C17.293 20.6514 16.4407 20.2986 15.552 20.2987Z" fill="#FFB05A"/>
<path d="M15.5795 10.525C11.8005 10.525 9.18164 11.5718 6.99868 13.2248C6.03077 13.9573 5.90858 15.3028 6.55523 16.2727L7.47166 17.6477C8.18283 18.7152 9.64431 18.8449 10.6665 18.2127C11.9474 17.4205 13.6471 16.7416 15.5795 16.7416C17.5119 16.7416 19.2109 17.4205 20.4918 18.2127C21.5146 18.8442 22.9754 18.7152 23.6873 17.6477L24.6031 16.2734C25.2504 15.3028 25.1275 13.9573 24.1603 13.2248C21.9766 11.5718 19.3578 10.525 15.5795 10.525Z" fill="#FFB05A"/>
</svg>
